<svg id="Person--Streamline-Carbon" xmlns="http://www.w3.org/2000/svg" viewBox="0 0 16 16" height="16" width="16">
  <desc>
    Person Streamline Icon: https://streamlinehq.com
  </desc>
  <defs></defs>
  <title>person</title>
  <path d="M9 15h-2a1 1 0 0 1 -1 -1v-3.5a1 1 0 0 1 -1 -1v-3a1.5 1.5 0 0 1 1.5 -1.5h3a1.5 1.5 0 0 1 1.5 1.5v3a1 1 0 0 1 -1 1v3.5a1 1 0 0 1 -1 1Zm-2.5 -9a0.47 0.47 0 0 0 -0.5 0.5v3h1v4.5h2v-4.5h1v-3a0.47 0.47 0 0 0 -0.5 -0.5Z" fill="#000000" stroke-width="0.5"></path>
  <path d="M8 4.5a2 2 0 1 1 2 -2 2 2 0 0 1 -2 2Zm0 -3a1 1 0 1 0 1 1 1 1 0 0 0 -1 -1Z" fill="#000000" stroke-width="0.5"></path>
  <path id="_Transparent_Rectangle_" d="M0 0h16v16H0Z" fill="none" stroke-width="0.5"></path>
</svg>